# xmcd
#
# Track frame offsets:
#	150
#	14194
#	33520
#	50523
#	66660
#	88112
#	107944
#	126148
#	145014
#	163179
#	183863
#	201515
#	218967
#
# Disc length: 3184 seconds
#
# Revision: 0
# Processed by: cddbd v1.5.2PL0 Copyright (c) Steve Scherf et al.
# Submitted via: dBpowerAMP V4.0
#
DISCID=ce0c6e0d
DTITLE=Astro'n'out - Kus Kus
DYEAR=2006
DGENRE=astro-rock
TTITLE0=Ne Gravitatei
TTITLE1=Kiegeli
TTITLE2=Monsters
TTITLE3=Tanki
TTITLE4=Vien (neguli neguli)
TTITLE5=Baidos
TTITLE6=Dala Rigas
TTITLE7=Mas'
TTITLE8=Funny How
TTITLE9=Tieva Diega
TTITLE10=Enigmatic
TTITLE11=La-La-Lauring
TTITLE12=Kus Kus
EXTD=
EXTT0=
EXTT1=
EXTT2=
EXTT3=
EXTT4=
EXTT5=
EXTT6=
EXTT7=
EXTT8=
EXTT9=
EXTT10=
EXTT11=
EXTT12=
PLAYORDER=
